<?xml version="1.0" encoding="UTF-8"?>
<svg id="Layer_2" xmlns="http://www.w3.org/2000/svg" xmlns:xlink="http://www.w3.org/1999/xlink" version="1.1" viewBox="0 0 528.5 528.5">
  <!-- Generator: Adobe Illustrator 30.1.0, SVG Export Plug-In . SVG Version: 2.1.1 Build 136)  -->
  <defs>
    <style>
      .st0 {
        fill: none;
      }

      .st1 {
        fill: #eaf2e5;
      }

      .st2 {
        fill: #231f20;
      }

      .st3 {
        fill: #f63c54;
      }

      .st4 {
        clip-path: url(#clippath);
      }
    </style>
    <clipPath id="clippath">
      <path class="st0" d="M339.1,264.3s-33.5,45.7-74.8,45.7-74.8-45.7-74.8-45.7c0,0,33.5-45.7,74.8-45.7s74.8,45.7,74.8,45.7Z"/>
    </clipPath>
  </defs>
  <g id="Layer_1-2">
    <g>
      <circle class="st3" cx="264.3" cy="264.3" r="264.3"/>
      <path class="st2" d="M264.3,393c-71,0-128.8-57.8-128.8-128.8s57.8-128.8,128.8-128.8,128.8,57.8,128.8,128.8-57.8,128.8-128.8,128.8ZM264.3,160.2c-57.4,0-104.1,46.7-104.1,104.1s46.7,104.1,104.1,104.1,104.1-46.7,104.1-104.1-46.7-104.1-104.1-104.1h0Z"/>
      <g>
        <g>
          <g class="st4">
            <g>
              <g>
                <rect class="st0" x="298.8" y="216.2" width="53.9" height="53.9"/>
                <rect class="st1" x="298.8" y="216.2" width="53.9" height="53.9"/>
              </g>
              <g>
                <rect class="st0" x="298.8" y="270" width="53.9" height="53.9"/>
                <rect class="st1" x="298.8" y="270" width="53.9" height="53.9"/>
              </g>
              <g>
                <rect class="st0" x="244.9" y="216.2" width="53.9" height="53.9"/>
                <rect class="st1" x="244.9" y="216.2" width="53.9" height="53.9"/>
              </g>
              <g>
                <rect class="st0" x="244.9" y="270" width="53.9" height="53.9"/>
                <rect class="st1" x="244.9" y="270" width="53.9" height="53.9"/>
              </g>
              <g>
                <rect class="st0" x="191" y="216.2" width="53.9" height="53.9"/>
                <rect class="st1" x="191" y="216.2" width="53.9" height="53.9"/>
              </g>
              <g>
                <rect class="st0" x="191" y="270" width="53.9" height="53.9"/>
                <rect class="st1" x="191" y="270" width="53.9" height="53.9"/>
              </g>
              <g>
                <rect class="st0" x="137.1" y="216.2" width="53.9" height="53.9"/>
                <rect class="st1" x="137.1" y="216.2" width="53.9" height="53.9"/>
              </g>
              <g>
                <rect class="st0" x="137.1" y="270" width="53.9" height="53.9"/>
                <rect class="st1" x="137.1" y="270" width="53.9" height="53.9"/>
              </g>
            </g>
          </g>
          <path class="st2" d="M264.3,322.6c-47.2,0-83.5-48.8-85-50.9l-5.5-7.5,5.5-7.5c1.5-2.1,37.8-50.9,85-50.9s83.5,48.8,85,50.9l5.5,7.5-5.5,7.5c-1.5,2.1-37.8,50.9-85,50.9ZM205.9,264.3c3.5,3.8,8.2,8.7,14,13.5,10.6,8.9,27,19.5,44.3,19.5s33.7-10.6,44.3-19.5c5.8-4.8,10.5-9.7,14-13.5-3.5-3.8-8.2-8.7-14-13.5-10.6-8.9-27-19.5-44.3-19.5s-33.7,10.6-44.3,19.5c-5.8,4.8-10.5,9.7-14,13.5h0Z"/>
        </g>
        <circle class="st2" cx="264.3" cy="264.3" r="28.9"/>
      </g>
      <path class="st0" d="M438.3,326.3c7.8,8.3,11.8,19.1,11.4,30.4s-5.2,21.7-13.6,29.5c-8,7.4-18.1,11.4-28.8,11.4s-1,0-1.6,0c-13.3-.5-25.5-7.2-33.1-17.9-3.4,3.2-7,6.3-10.6,9.1,6.8,8.6,16.2,15,27.1,18.3,14.1,4.3,28.9,2.9,41.7-4s22.2-18.4,26.5-32.4c4.3-14.1,2.9-28.9-4-41.7-7.4-13.8-20.3-23.7-35.2-27.4-1,4-2.1,7.9-3.3,11.8,9,1.6,17.2,6.1,23.6,12.9h0Z"/>
      <path class="st0" d="M75.2,329c-6.8,12.8-8.2,27.6-4,41.7,4.3,14.1,13.7,25.6,26.5,32.4,12.8,6.8,27.6,8.2,41.7,4,10.9-3.3,20.2-9.7,27.1-18.3-3.7-2.9-7.2-6-10.6-9.1-8.1,11.5-21.2,18-34.7,18s-13.2-1.5-19.3-4.7c-20.8-10.7-29-36.4-18.3-57.2,6.1-11.8,17.4-20,30.2-22.4-1.3-3.9-2.4-7.8-3.3-11.8-14.9,3.7-27.8,13.6-35.2,27.4h0Z"/>
      <path class="st0" d="M100,344.2c-2.9,5.6-3.4,12.1-1.4,18.2,2,6.1,6.1,11.1,11.8,14s12.1,3.4,18.2,1.5c6.1-2,11.1-6.1,14-11.8l1,.5c-9.5-11.1-17.4-23.6-23.5-37.1v1.8c-8.4.4-16.1,5.4-20,13h0Z"/>
      <path class="st0" d="M406.4,379c6.3.2,12.4-2,17.1-6.4s7.4-10.3,7.7-16.6c.2-6.3-2-12.4-6.4-17.1s-10.3-7.4-16.6-7.7v-1c-6.1,13.5-14.1,25.9-23.7,37l1.6-.9c4,7.5,11.8,12.4,20.3,12.7h0Z"/>
      <path class="st0" d="M312.8,71.9c-7.1-12.7-18.9-21.8-33.1-25.7-14.2-3.9-29-2.2-41.6,5-12.6,7.2-21.8,18.9-25.7,33.1-2.8,10.2-2.7,20.6.2,30.4,3.7-1.3,7.5-2.4,11.4-3.5-2.9-8.2-3.3-17.1-.9-25.7,3.1-11,10.1-20.1,19.9-25.6,20.4-11.5,46.3-4.3,57.8,16.1,6.1,10.8,7.1,23.6,3,35,4.6,1.2,9.1,2.6,13.5,4.2,4.4-14.2,2.9-29.9-4.6-43.2h0Z"/>
      <path class="st0" d="M284.7,85.1c-3.1-5.5-8.2-9.5-14.4-11.2s-12.6-1-18.2,2.2c-5.5,3.1-9.5,8.2-11.2,14.4-1.6,5.8-1.1,11.8,1.6,17,7.1-1,14.4-1.5,21.8-1.5s14.2.5,21.1,1.4c3.5-7,3.3-15.4-.6-22.3h0Z"/>
      <path class="st2" d="M405.7,397.5c.5,0,1,0,1.6,0,10.7,0,20.9-4,28.8-11.4,8.3-7.8,13.2-18.2,13.6-29.5s-3.6-22.1-11.4-30.4c-6.4-6.9-14.6-11.3-23.6-12.9-1.9,5.8-4.1,11.4-6.6,16.8v1c6.3.2,12.2,3,16.6,7.7s6.7,10.8,6.4,17.1-3,12.2-7.7,16.6c-4.7,4.4-10.8,6.7-17.1,6.4-8.5-.3-16.3-5.2-20.3-12.7l-1.6.9c-3.7,4.4-7.7,8.5-11.9,12.4,7.6,10.7,19.8,17.4,33.1,17.9h0Z"/>
      <path class="st2" d="M83.5,335.7c-10.7,20.8-2.5,46.5,18.3,57.2,6.2,3.2,12.8,4.7,19.3,4.7,13.5,0,26.7-6.5,34.7-18-4.4-4.1-8.5-8.5-12.4-13l-1-.5c-2.9,5.6-7.9,9.8-14,11.8-6.1,2-12.6,1.5-18.2-1.5-5.6-2.9-9.8-7.9-11.8-14-2-6.1-1.4-12.6,1.4-18.2,3.9-7.6,11.6-12.5,20.1-13v-1.8c-2.5-5.2-4.5-10.6-6.3-16.1-12.9,2.3-24.2,10.5-30.2,22.4h0Z"/>
      <path class="st2" d="M212.4,84.3c3.9-14.2,13.1-25.9,25.7-33.1s27.4-8.9,41.6-5c14.2,3.9,25.9,13.1,33.1,25.7,7.5,13.3,9,29,4.6,43.2,5.9,2.1,11.6,4.5,17.1,7.3,6.6-19.5,4.7-41.3-5.6-59.6-9.6-17-25.3-29.2-44.2-34.5-19-5.3-38.7-2.9-55.7,6.7-17,9.6-29.2,25.3-34.5,44.2-3.9,14.2-3.6,28.9.8,42.4,5.6-2.7,11.3-5.1,17.2-7.1-2.9-9.8-3-20.2-.2-30.4h0Z"/>
      <path class="st2" d="M469.6,320.2c-10-18.9-27.8-32.2-48.3-36.9-.7,6.2-1.9,12.3-3.3,18.3,14.9,3.7,27.8,13.6,35.2,27.4,6.8,12.8,8.2,27.6,4,41.7-4.3,14.1-13.7,25.6-26.5,32.4-12.8,6.8-27.6,8.2-41.7,4-10.9-3.3-20.2-9.7-27.1-18.3-4.9,3.8-9.9,7.4-15.2,10.6,9.2,12,22,20.9,36.9,25.4,7.1,2.2,14.4,3.2,21.6,3.2,11.8,0,23.5-2.9,34.2-8.6,17.2-9.2,29.8-24.6,35.5-43.4,5.7-18.8,3.8-38.6-5.3-55.8h0Z"/>
      <path class="st2" d="M300.8,76c-11.5-20.4-37.5-27.6-57.8-16.1-9.8,5.6-16.9,14.6-19.9,25.6-2.4,8.6-2.1,17.5.9,25.7,6-1.6,12.2-2.8,18.5-3.7-2.6-5.3-3.2-11.3-1.6-17,1.7-6.2,5.7-11.3,11.2-14.4,5.5-3.1,12-3.9,18.2-2.2,6.2,1.7,11.3,5.7,14.4,11.2,3.9,6.9,4.1,15.3.6,22.3,6.3.8,12.5,2,18.5,3.6,4-11.4,3-24.3-3-35h0Z"/>
      <path class="st2" d="M139.5,407.1c-14.1,4.3-28.9,2.9-41.7-4s-22.2-18.4-26.5-32.4c-4.3-14.1-2.9-28.9,4-41.7,7.4-13.8,20.3-23.7,35.2-27.4-1.4-6-2.5-12-3.3-18.3-20.4,4.7-38.2,18.1-48.3,36.9-9.2,17.2-11.1,37-5.3,55.8,5.7,18.8,18.3,34.2,35.5,43.4,10.7,5.7,22.4,8.6,34.2,8.6s14.5-1.1,21.6-3.2c14.9-4.5,27.7-13.4,36.9-25.4-5.3-3.2-10.4-6.8-15.2-10.6-6.8,8.6-16.2,15-27.1,18.3h0Z"/>
      <g>
        <path class="st2" d="M132.5,176.5l-64.9-38.2c-3.3,5.1-6.4,10.4-9.2,15.7l64.9,38.2c2.8-5.4,5.9-10.7,9.2-15.7h0Z"/>
        <path class="st2" d="M405.2,192.3l64.9-38.2c-2.9-5.4-6-10.6-9.2-15.7l-64.9,38.2c3.4,5.1,6.5,10.3,9.2,15.7h0Z"/>
        <path class="st2" d="M111,224.5l-73.8-14.8c-1.4,5.9-2.6,11.9-3.5,17.9l73.8,14.8c.8-6.1,2-12,3.6-17.9h0Z"/>
        <path class="st2" d="M373.8,149.9l48.7-57.3c-4.5-4.1-9.1-8.1-13.9-11.8l-48.7,57.3c4.8,3.7,9.5,7.6,13.9,11.8Z"/>
        <path class="st2" d="M165.4,140.7l-50.2-56.2c-4.7,3.9-9.2,8-13.6,12.2l50.2,56.2c4.3-4.3,8.8-8.4,13.6-12.2h0Z"/>
        <path class="st2" d="M420.4,238.7l73.5-16.7c-1.1-6-2.4-12-4-17.8l-73.5,16.7c1.7,5.8,3,11.8,4,17.8h0Z"/>
        <path class="st2" d="M256.6,422.7l1.1,74.9c2.2,0,4.4,0,6.6,0,3.9,0,7.8-.1,11.7-.3l-1.1-75c-6,.4-12.1.5-18.2.2h0Z"/>
        <path class="st2" d="M309,416.3l25.7,70.6c5.8-1.8,11.5-3.9,17.2-6.2l-25.7-70.6c-5.6,2.4-11.3,4.5-17.1,6.2h0Z"/>
        <path class="st2" d="M208.7,413l-21.7,71.7c5.7,2,11.5,3.8,17.4,5.4l21.7-71.7c-5.9-1.4-11.7-3.2-17.5-5.3h0Z"/>
      </g>
    </g>
  </g>
</svg>