<?xml version="1.0" encoding="UTF-8"?>
<svg id="Layer_2" data-name="Layer 2" xmlns="http://www.w3.org/2000/svg" xmlns:xlink="http://www.w3.org/1999/xlink" viewBox="0 0 1107.6 409.31">
  <defs>
    <style>
      .cls-1 {
        fill: #f8f8dd;
      }

      .cls-1, .cls-2, .cls-3 {
        stroke-width: 0px;
      }

      .cls-4 {
        clip-path: url(#clippath);
      }

      .cls-2 {
        fill: none;
      }

      .cls-3 {
        fill: #db4f5a;
      }

      .cls-5 {
        clip-path: url(#clippath-1);
      }
    </style>
    <clipPath id="clippath">
      <rect class="cls-2" width="1107.6" height="409.31"/>
    </clipPath>
    <clipPath id="clippath-1">
      <rect class="cls-2" width="1107.6" height="409.31"/>
    </clipPath>
  </defs>
  <g id="Layer_1-2" data-name="Layer 1">
    <g id="Word_Mark" data-name="Word Mark">
      <g class="cls-4">
        <g class="cls-5">
          <path class="cls-1" d="M494.36,75.49c-3.64-5.4-10.53-9.99-18.63-9.99-9.72,0-15.8,5.13-15.8,13.1v20.25c0,7.97,6.08,13.1,15.8,13.1,8.1,0,15.39-4.73,18.63-9.99l19.44,10.67c-4.86,12.69-20.52,23.23-40.24,23.23-27.55,0-46.58-16.07-46.58-37.81v-18.63c0-21.74,19.04-37.81,46.58-37.81,19.71,0,36.05,10.53,41.05,23.22l-20.25,10.67Z"/>
          <polygon class="cls-1" points="524.34 133.69 524.34 43.76 601.03 43.76 601.03 66.98 556.47 66.98 556.47 80.62 585.78 80.62 585.78 94.94 556.47 94.94 556.47 108.71 601.03 108.71 601.03 133.69 524.34 133.69"/>
          <polygon class="cls-1" points="676.11 133.69 650.46 100.47 644.24 92.37 644.24 133.69 614.94 133.69 614.94 43.76 642.35 43.76 667.74 77.52 673.68 85.35 673.68 43.76 702.98 43.76 702.98 133.69 676.11 133.69"/>
          <polygon class="cls-1" points="772.93 68.07 772.93 133.69 740.79 133.69 740.79 68.07 714.19 68.07 714.19 43.76 799.53 43.76 799.53 68.07 772.93 68.07"/>
          <path class="cls-1" d="M870.29,133.69c-4.59,0-7.29-6.62-7.29-13.91v-12.29c0-4.05-1.76-7.7-7.29-7.7h-12.83v33.89h-32.14V43.76h52.79c18.09,0,30.38,10.13,30.38,24.04v3.11c0,8.91-5.81,16.74-15.53,19.31,10.94,2.02,15.93,9.99,15.93,18.36v10.13c0,5.67,1.49,10.53,4.05,14.58v.41h-28.09ZM862.18,73.6c0-5.54-2.7-7.83-9.32-7.83h-9.99v19.04h9.99c6.62,0,9.32-2.57,9.32-7.83v-3.38Z"/>
          <path class="cls-1" d="M963.32,133.69l-3.92-14.04h-25.79l-4.46,14.04h-28.49l31.46-89.93h33.35l31.6,89.93h-33.76ZM947.52,74.95l-7.97,26.06h14.72l-6.75-26.06Z"/>
          <polygon class="cls-1" points="1005.31 133.69 1005.31 43.76 1037.45 43.76 1037.45 108.84 1082.01 108.84 1082.01 133.69 1005.31 133.69"/>
          <path class="cls-1" d="M490.48,193.43c-3.45-5.11-9.96-9.46-17.63-9.46-9.2,0-14.95,4.86-14.95,12.39v19.16c0,7.54,5.75,12.39,14.95,12.39,7.67,0,14.57-4.47,17.63-9.45l18.4,10.09c-4.6,12.01-19.42,21.97-38.07,21.97-26.06,0-44.08-15.2-44.08-35.77v-17.63c0-20.57,18.01-35.77,44.08-35.77,18.65,0,34.11,9.97,38.84,21.98l-19.16,10.09Z"/>
          <path class="cls-1" d="M575.2,248.49c-4.35,0-6.9-6.26-6.9-13.16v-11.63c0-3.83-1.66-7.28-6.9-7.28h-12.14v32.07h-30.41v-85.09h49.95c17.12,0,28.75,9.58,28.75,22.74v2.94c0,8.43-5.49,15.84-14.69,18.27,10.35,1.92,15.08,9.46,15.08,17.38v9.58c0,5.36,1.41,9.96,3.83,13.8v.38h-26.57ZM567.53,191.64c0-5.24-2.55-7.41-8.82-7.41h-9.45v18.01h9.45c6.26,0,8.82-2.43,8.82-7.41v-3.2Z"/>
          <polygon class="cls-1" points="611.49 248.49 611.49 163.4 684.06 163.4 684.06 185.38 641.9 185.38 641.9 198.28 669.63 198.28 669.63 211.83 641.9 211.83 641.9 224.86 684.06 224.86 684.06 248.49 611.49 248.49"/>
          <path class="cls-1" d="M748.98,248.49l-3.71-13.29h-24.4l-4.22,13.29h-26.96l29.77-85.09h31.56l29.9,85.09h-31.94ZM734.03,192.92l-7.54,24.66h13.93l-6.39-24.66Z"/>
          <polygon class="cls-1" points="834.33 186.4 834.33 248.49 803.93 248.49 803.93 186.4 778.76 186.4 778.76 163.4 859.5 163.4 859.5 186.4 834.33 186.4"/>
          <rect class="cls-1" x="870.12" y="163.4" width="30.41" height="85.09"/>
          <polygon class="cls-1" points="968.88 248.49 939.62 248.49 907.81 163.4 940.39 163.4 956.62 213.61 973.35 163.4 1001.46 163.4 968.88 248.49"/>
          <polygon class="cls-1" points="1008.63 248.49 1008.63 163.4 1081.2 163.4 1081.2 185.38 1039.04 185.38 1039.04 198.28 1066.76 198.28 1066.76 211.83 1039.04 211.83 1039.04 224.86 1081.2 224.86 1081.2 248.49 1008.63 248.49"/>
          <path class="cls-1" d="M489.33,312.36c-3.39-5.02-9.8-9.29-17.33-9.29-9.04,0-14.7,4.77-14.7,12.18v18.84c0,7.41,5.65,12.18,14.7,12.18,7.54,0,14.32-4.4,17.33-9.29l18.09,9.92c-4.52,11.81-19.09,21.6-37.43,21.6-25.62,0-43.33-14.95-43.33-35.17v-17.33c0-20.22,17.71-35.17,43.33-35.17,18.34,0,33.54,9.8,38.18,21.6l-18.84,9.92Z"/>
          <path class="cls-1" d="M556.4,368.5c-24.74,0-42.08-14.07-42.08-36.8v-14.19c0-22.73,17.33-36.68,42.08-36.68s41.95,13.94,41.95,36.68v14.19c0,22.73-17.33,36.8-41.95,36.8M567.71,314.24c0-8.17-4.4-11.93-11.3-11.93s-11.43,3.77-11.43,11.93v20.72c0,8.16,4.4,11.93,11.43,11.93s11.3-3.77,11.3-11.93v-20.72Z"/>
          <polygon class="cls-1" points="687.66 366.49 687.66 320.27 682.77 333.96 671.08 366.49 653 366.49 641.44 333.59 636.79 320.15 636.79 366.49 610.04 366.49 610.04 282.84 650.49 282.84 661.79 315.62 664.43 323.29 667.07 315.62 678.12 282.84 717.31 282.84 717.31 366.49 687.66 366.49"/>
          <path class="cls-1" d="M779.74,338.23h-18.09v28.26h-29.89v-83.65h47.98c17.33,0,29.27,9.67,29.27,26.38v2.64c0,16.83-11.93,26.38-29.27,26.38M779.61,310.6c0-5.02-2.76-7.28-8.54-7.28h-9.42v18.97h9.42c5.4,0,8.54-1.88,8.54-7.28v-4.4Z"/>
          <path class="cls-1" d="M864.53,366.49l-3.64-13.06h-23.99l-4.15,13.06h-26.5l29.27-83.65h31.02l29.39,83.65h-31.4ZM849.83,311.86l-7.41,24.24h13.69l-6.28-24.24Z"/>
          <polygon class="cls-1" points="960.49 366.49 936.63 335.6 930.85 328.06 930.85 366.49 903.59 366.49 903.59 282.84 929.09 282.84 952.7 314.24 958.23 321.53 958.23 282.84 985.48 282.84 985.48 366.49 960.49 366.49"/>
          <polygon class="cls-1" points="1052.31 332.83 1052.31 366.49 1022.29 366.49 1022.29 332.83 991.64 282.84 1023.55 282.84 1038.87 311.73 1053.44 282.84 1083.84 282.84 1052.31 332.83"/>
          <path class="cls-3" d="M303.56,409.31h804.04v-20.39H338.26c-10.89,7.78-22.5,14.61-34.71,20.39"/>
          <path class="cls-3" d="M302.33,0c12.36,5.76,24.11,12.59,35.13,20.39h770.13V0H302.33Z"/>
          <path class="cls-3" d="M202.02,282.86c42.41,0,76.91-34.5,76.91-76.91s-34.5-76.91-76.91-76.91-76.91,34.5-76.91,76.91,34.5,76.91,76.91,76.91M202.02,161.32c36.08,0,63.83,37.32,65,38.91l4.19,5.72-4.19,5.72c-1.16,1.59-28.92,38.91-65,38.91s-63.83-37.32-65-38.91l-4.19-5.72,4.19-5.72c1.16-1.59,28.92-38.91,65-38.91"/>
          <path class="cls-3" d="M168.15,216.29c8.13,6.81,20.61,14.92,33.87,14.92s25.74-8.12,33.87-14.92c4.4-3.68,8.05-7.41,10.71-10.34-2.66-2.94-6.31-6.66-10.71-10.34-8.13-6.81-20.61-14.92-33.87-14.92s-25.74,8.11-33.87,14.92c-4.4,3.68-8.05,7.41-10.71,10.34,2.65,2.94,6.31,6.66,10.71,10.34M202.02,183.85c12.2,0,22.09,9.89,22.09,22.09s-9.89,22.1-22.09,22.1-22.09-9.89-22.09-22.1,9.89-22.09,22.09-22.09"/>
          <path class="cls-3" d="M211.96,203.45c2.24,0,4.05-1.81,4.05-4.05s-1.81-4.05-4.05-4.05-4.05,1.81-4.05,4.05,1.81,4.05,4.05,4.05"/>
          <path class="cls-3" d="M202.02,3.93C90.45,3.93,0,94.38,0,205.95s90.45,202.02,202.02,202.02,202.02-90.44,202.02-202.02S313.59,3.93,202.02,3.93M377.59,173.67l-56.18,12.73c-.76-4.6-1.79-9.15-3.07-13.61l56.21-12.74c1.19,4.47,2.2,9.01,3.04,13.61M324.69,263.01c-3.35-3.6-7.85-5.69-12.69-5.86l.03-.8c1.91-4.16,3.59-8.46,5.02-12.86,6.86,1.23,13.14,4.64,18.01,9.88,5.92,6.37,9.01,14.63,8.69,23.24-.32,8.62-4,16.62-10.38,22.54-6.08,5.64-13.86,8.71-22.04,8.71-.4,0-.8,0-1.21-.02-10.15-.37-19.52-5.53-25.31-13.71,3.19-3,6.22-6.17,9.08-9.5l1.26-.67c3.05,5.76,8.98,9.48,15.49,9.72,4.84.18,9.48-1.57,13.09-4.91,3.6-3.35,5.69-7.85,5.86-12.69.18-4.84-1.57-9.48-4.91-13.09M352.35,109.69c2.51,3.91,4.86,7.92,7.07,12.03l-49.62,29.21c-2.13-4.16-4.49-8.17-7.06-12.03l49.62-29.21ZM312.33,65.62c3.66,2.88,7.2,5.9,10.61,9.05l-37.22,43.82c-3.37-3.23-6.92-6.24-10.62-9.04l37.23-43.82ZM148.69,64.55c4.03-14.49,13.38-26.5,26.35-33.82,12.96-7.32,28.08-9.14,42.57-5.11,14.49,4.03,26.5,13.38,33.82,26.35,7.9,13.99,9.31,30.62,4.28,45.54-4.23-2.1-8.59-3.95-13.08-5.55,3.36-10.89,2.2-22.89-3.53-33.03-5.46-9.67-14.44-16.66-25.29-19.67-10.84-3.01-22.14-1.67-31.81,3.8-9.67,5.46-16.65,14.44-19.67,25.29-2.16,7.77-2.08,15.77.15,23.23-4.51,1.56-8.89,3.37-13.14,5.43-3.4-10.39-3.66-21.6-.64-32.45M217.65,68.97c-2.38-4.21-6.3-7.26-11.04-8.58-4.74-1.32-9.67-.73-13.88,1.65-4.21,2.38-7.26,6.3-8.58,11.04-1.23,4.42-.8,9.01,1.2,13.03-4.82.66-9.54,1.61-14.16,2.82-2.25-6.25-2.51-13.06-.68-19.64,2.33-8.38,7.75-15.33,15.26-19.57,15.58-8.8,35.41-3.29,44.21,12.29,4.65,8.23,5.41,18.04,2.33,26.78-4.62-1.19-9.36-2.11-14.18-2.75,2.64-5.38,2.49-11.8-.48-17.06M202.02,104.88c55.73,0,101.07,45.34,101.07,101.07s-45.34,101.07-101.07,101.07-101.07-45.34-101.07-101.07,45.34-101.07,101.07-101.07M75.33,280.99c1.5,4.68,4.7,8.48,9,10.7,4.3,2.21,9.25,2.61,13.93,1.11,4.68-1.5,8.48-4.7,10.7-9l.78.4c2.96,3.49,6.12,6.82,9.46,9.95-6.19,8.77-16.22,13.72-26.56,13.72-4.99,0-10.06-1.15-14.79-3.59-15.91-8.19-22.19-27.79-14-43.7,4.64-9.02,13.27-15.31,23.12-17.09,1.38,4.22,2.97,8.33,4.78,12.33l.07,1.34c-6.51.32-12.4,4.11-15.38,9.9-2.22,4.3-2.61,9.25-1.11,13.94M88.07,68.56l38.41,42.95c-3.63,2.89-7.1,6-10.39,9.31l-38.39-42.94c3.34-3.24,6.8-6.35,10.38-9.32M51.69,109.67l49.62,29.21c-2.58,3.86-4.94,7.87-7.07,12.03l-49.62-29.21c2.2-4.11,4.56-8.12,7.07-12.02M28.42,164.29l56.44,11.29c-1.16,4.49-2.08,9.06-2.72,13.68l-56.42-11.29c.73-4.62,1.63-9.18,2.71-13.68M110.76,328.67c-5.45,1.66-11.02,2.48-16.54,2.48-9.05,0-17.98-2.21-26.14-6.56-13.14-7.01-22.78-18.79-27.16-33.17s-2.93-29.54,4.08-42.68c7.69-14.41,21.29-24.63,36.9-28.24.57,4.74,1.41,9.4,2.51,13.96-11.39,2.83-21.29,10.38-26.92,20.95-5.23,9.8-6.3,21.12-3.02,31.89,3.28,10.77,10.48,19.58,20.28,24.8,9.8,5.23,21.12,6.3,31.89,3.02,8.31-2.53,15.45-7.4,20.68-13.99,3.71,2.92,7.6,5.62,11.65,8.09-7.05,9.2-16.81,15.98-28.21,19.45M156.28,378.52c-4.52-1.19-8.97-2.56-13.34-4.09l16.61-54.79c4.38,1.61,8.83,2.96,13.34,4.06l-16.62,54.82ZM202.02,384.44c-1.68,0-3.36-.03-5.04-.07l-.85-57.28c4.66.21,9.32.14,13.95-.19l.85,57.33c-2.95.15-5.92.22-8.91.22M255.89,376.16l-19.66-53.96c4.47-1.34,8.85-2.93,13.11-4.76l19.68,54c-4.29,1.74-8.67,3.32-13.12,4.72M363.1,291.42c-4.38,14.39-14.02,26.17-27.16,33.17-8.16,4.35-17.09,6.56-26.14,6.56-5.52,0-11.08-.82-16.54-2.48-11.4-3.47-21.16-10.25-28.21-19.45,4.04-2.47,7.93-5.18,11.65-8.09,5.23,6.6,12.37,11.47,20.68,13.99,10.77,3.28,22.09,2.2,31.89-3.02,9.8-5.23,17-14.04,20.28-24.8,3.28-10.77,2.2-22.09-3.02-31.89-5.64-10.57-15.53-18.12-26.92-20.95,1.1-4.56,1.94-9.21,2.51-13.96,15.62,3.61,29.22,13.83,36.9,28.24,7.01,13.14,8.45,28.29,4.08,42.68"/>
          <path class="cls-1" d="M211.96,195.34c-2.24,0-4.05,1.81-4.05,4.05s1.81,4.05,4.05,4.05,4.05-1.81,4.05-4.05-1.81-4.05-4.05-4.05"/>
          <path class="cls-1" d="M235.89,216.29c4.4-3.68,8.05-7.41,10.71-10.34-2.66-2.94-6.31-6.66-10.71-10.34-1.52-1.28-3.2-2.6-5.01-3.9-.3-.22-.61-.44-.91-.65-4.32-3.03-9.31-5.92-14.69-7.87-2.31-.84-4.68-1.5-7.11-1.94-.81-.14-1.62-.26-2.44-.35-1.23-.13-2.46-.21-3.71-.21-.41,0-.83,0-1.24.02-.82.03-1.65.09-2.46.18-.82.09-1.63.21-2.44.35-10.1,1.8-19.38,7.66-26.15,13.07-.54.43-1.07.86-1.57,1.29-.55.46-1.09.92-1.62,1.38-3.16,2.76-5.88,5.49-8.05,7.82-.36.39-.71.77-1.04,1.14.33.37.68.75,1.04,1.14,2.17,2.34,4.9,5.07,8.05,7.83.53.46,1.07.92,1.62,1.38.51.43,1.03.86,1.57,1.29,6.77,5.42,16.05,11.27,26.15,13.07.81.14,1.62.26,2.44.35.82.09,1.64.15,2.46.18.41.01.83.02,1.24.02,1.24,0,2.48-.07,3.71-.21.82-.09,1.63-.21,2.44-.35,2.42-.43,4.8-1.1,7.11-1.94,5.38-1.95,10.38-4.84,14.69-7.87.31-.22.61-.43.91-.65,1.81-1.31,3.49-2.63,5.01-3.9M202.02,228.04c-12.2,0-22.09-9.89-22.09-22.09s9.89-22.1,22.09-22.1,22.09,9.89,22.09,22.1-9.89,22.09-22.09,22.09"/>
        </g>
      </g>
    </g>
  </g>
</svg>
