<?xml version="1.0" encoding="UTF-8"?>
<svg id="Layer_2" data-name="Layer 2" xmlns="http://www.w3.org/2000/svg" viewBox="0 0 269.62 159.7">
  <defs>
    <style>
      .cls-1 {
        fill: #da5245;
      }
    </style>
  </defs>
  <g id="Layer_1-2" data-name="Layer 1">
    <g id="uuid-98444cbf-b6ed-42a9-a3f8-7cb349c532b7" data-name="Layer 1-2">
      <g>
        <path class="cls-1" d="M90.72,122.9c-1.42,1.78-3.88,4.32-6.16,2.92-3.3-2.04.72-10.9,1.2-14.07-4.48,7-13.69,17.35-20.95,21.03-2.18,1.11-4.71,1.41-6.94.43-3.37-1.48-3.61-6.29-3.14-9.53.74-5.13,2.46-9.79,4.75-14.44,3.47-7.03,7.35-13.65,12.17-19.81,2.53-3.23,5.69-6.8,9.51-8.26,2.7-1.03,7.03-.18,7.97,3.26.69,2.51.41,5.23-.57,7.73-1.58,4.06-3.83,7.63-6.22,11.24-1.94,2.94-4.01,5.48-6.35,8.12-3.02,3.4-6.36,6.2-9.96,8.99-1.41,1.09-2.33,3.28-1.19,4.75.65.83,2.37.31,3.12-.16,2.29-1.44,4.06-3.12,6.02-4.97,7.95-7.53,13.19-17.28,18.23-26.93,1.03-1.98,2.09-3.7,3.04-5.76l13.71-29.61c.48-1.03,1.43-2.09,2.44-2.35,2.79-.72,5.14,1.48,5.22,4.23.06,1.92-.31,3.62-1.02,5.4-4.14,10.43-9.3,19.53-12.87,30.37,1.34-1.39,2.34-2.87,3.49-4.49,4.65-6.62,8.8-13.38,13.1-20.24,2.57-4.1,6.7-10.68,11.16-12.54,1.42-.59,3.35-.82,4.66.1,1.11.78,1.14,2.56.7,3.83-1.97,5.67-4.47,10.97-6.91,16.46l-3.79,8.55-5.26,12.37c-.39.92-3.38,7.55-2.62,7.83.66.24,2.22-1.26,2.61-1.7,6.52-7.4,11.49-15.71,15.76-24.57l6.54-13.59,12.76-25.35-10.18,1.89-18.19,3.33c-3.23.59-8,1.33-9.58-2.14-.56-1.23.11-2.19,1.06-2.78.63-.4.95-.33,1.72-.44l38.55-6.07,7.65-14.49c1.21-2.29,2.39-4.45,4.21-6.26,1.11-1.27,2.59-2.04,4.28-2.06s2.56,1.21,2.63,2.79c.27,6.02-3.53,12.44-6.65,17.7l22.46-3.3c2.01-.29,3.93.34,5.22,1.71.67.72,1.24,2.17.31,2.82-1.12.78-2.6.84-3.98,1.06l-27.28,4.21c-.74.11-1.01.44-1.38,1.03-5.11,8.35-9.75,16.81-14.3,25.51-2.98,5.7-5.56,11.4-7.69,17.44-.7,1.98-1.08,3.91-1.22,6.02.97,0,1.34-.61,1.82-1.18,3.72-4.42,6.9-9.05,10.04-13.92,2.08-3.22,8.36-13.99,8.86-17.08.44-2.69.55-5.22,1.86-7.7,1.39-2.65,2.98-5.14,5.3-7.06,1.31-1.08,2.7-2,4.46-1.92,1.45.06,2.6,1.07,2.51,2.54-.05.91-.21,1.84-.62,2.66l-2.88,5.88c-.91,1.85-1.88,3.62-2.4,5.62-.25.97.11,1.75,1.02,2.06l3.51,1.19c1.8.62,2.21,3.07,1.3,4.78l-3.97,7.37c-1.6,2.97-3,5.84-4.29,8.96-1.96,4.78-4.22,10.8-3.58,15.99.18,1.41.87,2.38,1.81,3.41.68.74-3.74,2.57-7.06,1.52-2.98-.94-4.63-3.72-4.79-6.79-.33-6.52,4.23-15.07,7.65-20.53l6.86-10.95c-1.57-.82-2.98-1.37-4.41-2.54-3.35,6.51-6.85,12.69-10.71,18.92-3.05,4.9-6.1,9.54-9.8,13.95-.92,1.09-1.88,2-2.89,3.03-1.37,1.38-3.61,1.91-5.31.87-2.68-1.63-2.69-4.94-2.32-7.76-1.18,1.6-1.98,3.24-3.1,4.96-4.49,6.87-9.04,13.54-13.96,20.11-1.53,2.05-3.04,3.87-5,5.45-1.75,1.41-4.2,1.79-6.19.7-3.39-1.86-2.82-8.47-2.42-11.72.48-3.96,1.63-7.58,2.92-11.5-1.19.92-1.99,2.11-2.83,3.34l-2.98,4.38c-3.69,5.44-6.23,10.66-10.29,15.75h0ZM83.06,94.88c.95-1.4,2.04-2.99,1.86-4.65-.12-1.11-1.71-.94-2.44-.46-1.94,1.26-3.28,3.03-4.55,5-2.97,4.64-5.49,9.4-7.73,14.64,3.51-2.2,10.29-10.77,12.86-14.54h0Z"/>
        <path class="cls-1" d="M30.58,77.18c-7.43,14.15-12.66,31.62-11.89,47.7.48,10.09,4.31,22.01,15.14,24.95,12.81,3.48,27.32-7.42,35.71-16.1l6.86-7.11c.36-.38,1.52-.95,1.77-.23.92,2.66-6.06,9.95-7.29,11.76-1.31,1.92-3.08,3.42-4.7,5.09-1.89,1.95-3.88,3.55-6.05,5.24l-2.29,1.79c-4.88,3.82-10.39,6.48-16.43,8.15-10.74,2.96-23.54.91-31.17-7.7-2.24-2.52-4.07-5.1-5.58-8.18C.95,134.92-.35,126.55.08,118c1.31-25.99,14.34-51.36,32.79-69.31,8.28-8.06,19.73-15.97,30.92-19.04,7.8-2.14,17.78-2.56,23.73,3.72,4.71,4.97,5.3,12.75,3.98,19.22-.77,3.79-1.98,7.27-3.77,10.7-1.98,3.79-4.16,7.3-7.13,10.37-4.37,4.53-10.4,8.81-17.04,8.01-4.89-.59-8.61-4.36-9.52-9.15-1.53-8.12,4.2-17.18,12.03-19.72,4.26-1.38,7.39.9,7.17,1.55-.06.17-.25.44-.5.62-5.26,3.66-8.75,9.6-8.88,16.05-.04,1.7,1.02,3.33,2.61,3.5,4.39.47,9.2-5.48,11.46-8.77,4.37-6.36,8.72-17.2,7.42-24.91-.74-4.35-4.4-7.06-8.79-6.71-10.64.85-22.08,10.75-28.91,18.45-7.01,7.91-12.14,15.21-17.07,24.61h-.01Z"/>
        <path class="cls-1" d="M136.21,127.14c-18.03,6.47-28.14,12.42-43.85,23.01-2.33,1.57-8.95,5.94-11.02,2.44-2.44-4.13,4.05-9.07,7.04-11.19,5.26-3.72,10.87-6.74,16.74-9.55,19.02-9.12,38.74-16.36,59.17-21.62,5.6-1.44,11.06-2.48,16.77-2.95,3.17-.26,6.16-.05,9.12.95,3.67,1.24,5.78,5.02,4.5,6.91-.2.29-.75.5-1.26.49-17.42-.26-40.75,5.61-57.22,11.52h0Z"/>
        <path class="cls-1" d="M190.71,93.84c-.41-2.16.26-4.01.33-6.33-2.97,4.05-5.64,7.99-9.44,11.05-1.52,1.22-3.34,1.97-5.2,2.1-2.29.15-4.09-1.02-4.98-3.01-.71-1.6-.87-3.24-.69-5,.84-7.95,5.47-17.21,9.56-24.02,2.27-3.78,4.76-7.27,7.88-10.36,2.84-2.82,7.48-6.13,11.47-3.81,1.95,1.13,2.39,3.27,2.64,5.68.97-.92,1.24-2.22,2.03-3.22,1.29-1.62,2.97-2.73,5.02-2.51,1.73.18,2.85,1.43,2.6,3.19-.16,1.15-.6,2.12-1.16,3.17-3.46,6.51-6.7,12.97-9.46,19.82-.49,1.22-3.29,8.43-2.46,8.85.2.1.67.09.94-.13,5.03-4.01,10.36-11.8,14.04-17.23,3.12-4.6,3.62-8.06,5.71-13.11,4.39-10.66,9.67-20.73,15.22-30.84,3.5-6.37,7.03-12.49,11.25-18.38,2.84-3.97,8.13-10.26,13.5-9.69,3.01.32,4.98,2.65,5.08,5.64.07,2.2-.48,4.25-1.45,6.25-1.75,3.62-3.92,6.79-6.21,10.13l-17,24.85-5.69,8.33c-2.62,3.84-5.46,7.4-7.64,11.56-3.12,5.93-5.12,12.25-7.61,18.45-.21.52-.55.73-.31,1.69,4.65-5.25,10.26-9.6,16.58-13.15,4.43-2.49,8.97-4.24,14.06-4.71,5.21-.48,10.79.77,14.55,4.58,6.37,6.45,6.84,16.2,4.39,24.58-2.25,7.71-5.95,14.77-10.95,21.03-4.54,5.69-9.6,10.66-15.55,14.81-2.51,1.75-4.98,3.1-7.73,4.43-4.41,2.13-9.06,3.48-14.04,3.4-14.44-.23-18.1-14.12-17.4-26.1.73-12.5,4.75-21.86,9.02-33.69-.74-.16-1.06.67-1.42,1.19-2.6,3.73-5.24,7.29-8.46,10.49-1.61,1.6-3.24,3.19-5.43,3.7-2.73.63-5.05-.91-5.58-3.68h0ZM235.95,44.46l17.93-26.36c1.13-1.66,5.66-8.67,4.44-10.24-.4-.52-1.43-.08-1.9.18-3.52,1.91-6.89,6.67-9.11,10.05-5.42,8.22-9.68,17.01-12.96,26.3-.49,1.38-1.05,2.52-1.28,3.96,1.24-1.09,1.71-2.53,2.88-3.88ZM187.42,85.81c3.78-4.7,6.69-9.77,9.46-14.99.43-.8-.14-1.42,0-2.02.41-1.65,3.02-7.15,1.01-8.56-1.88-1.32-5.25,3.14-6.22,4.6-4.26,6.45-7.45,13.45-9.61,20.88-.3,1.05-.98,3.68.03,4.23,1.44.8,4.23-2.78,5.33-4.14h0ZM243.38,120.06c5.78-6.23,9.61-14.04,11.12-22.43.68-3.78.71-7.47-.16-11.08-1.12-4.61-5.06-7.5-9.72-7.47-2.69.02-5.18.36-7.64,1.46-3.13,1.4-6.05,3.04-8.66,5.29-4.07,3.52-7.44,7.5-10.11,12.21-4.05,7.16-5.3,15.58-3.27,23.51,1.22,4.76,5.14,7.91,10.03,7.99,6.77.11,13.88-4.6,18.4-9.49h0Z"/>
      </g>
      <g>
        <path class="cls-1" d="M122.89,147.63h-1.5c-.08,0-.09.02-.09.09v9.1c0,.08.02.09.09.09h1.5c.07,0,.09-.02.09-.09v-1.7c0-.09.07-.13.15-.13h1.65c.09,0,.15.04.15.13v1.85c0,1.13-.4,1.79-1.83,1.79h-1.85c-1.46,0-1.88-.66-1.88-1.75v-9.43c0-1.13.49-1.79,1.85-1.79h1.86c1.35,0,1.85.66,1.85,1.77v1.7c0,.09-.05.13-.15.13h-1.65c-.08,0-.15-.04-.15-.13v-1.53c0-.07-.02-.09-.09-.09h0Z"/>
        <path class="cls-1" d="M131.88,158.66c-.11,0-.15-.09-.15-.15l-1.41-5.04v5.04c0,.11-.05.15-.15.15h-1.65c-.11,0-.15-.09-.15-.15v-12.5c0-.09.05-.15.15-.15h3.29c1.35,0,1.85.66,1.85,1.77v3.75c0,1.02-.33,1.66-1.42,1.77l1.61,5.35c.02.11-.05.15-.15.15h-1.83ZM130.33,147.72v3.62h1.32c.07,0,.09-.02.09-.09v-3.43c0-.07-.02-.09-.09-.09h-1.32Z"/>
        <path class="cls-1" d="M137.49,158.66c-.11,0-.15-.09-.15-.15v-12.5c0-.09.05-.15.15-.15h3.4c.07,0,.15.05.15.15v1.55c0,.09-.07.13-.15.13h-1.61v3.54h1.61c.07,0,.15.05.15.15v1.55c0,.11-.07.15-.15.15h-1.61v3.73h1.61c.07,0,.15.05.15.13v1.57c0,.11-.07.15-.15.15h-3.4Z"/>
        <path class="cls-1" d="M147.89,145.87c.11,0,.15.09.15.15l2.06,12.5c0,.09-.05.15-.15.15h-1.72c-.07,0-.15-.05-.15-.15l-.42-3.05h-1.52l-.46,3.05c0,.09-.05.15-.15.15h-1.72c-.09,0-.15-.05-.15-.15l2.17-12.5c0-.05.04-.15.15-.15h1.88ZM146.42,153.64h1.01l-.48-3.53-.53,3.53Z"/>
        <path class="cls-1" d="M155.21,147.7v10.82c0,.11-.05.15-.13.15h-1.66c-.09,0-.15-.09-.15-.15v-10.82h-1.39c-.11,0-.15-.08-.15-.13v-1.55c0-.09.05-.15.15-.15h4.73c.08,0,.15.05.15.15v1.55c0,.09-.07.13-.15.13h-1.41Z"/>
        <path class="cls-1" d="M159.93,158.66c-.11,0-.15-.09-.15-.15v-12.5c0-.09.05-.15.15-.15h1.65c.09,0,.15.05.15.15v12.5c0,.11-.05.15-.15.15h-1.65Z"/>
        <path class="cls-1" d="M167,158.66c-.11,0-.15-.09-.15-.15l-2.12-12.5c0-.09.05-.15.15-.15h1.72c.07,0,.15.05.15.15l1.19,7.84,1.21-7.84c0-.09.05-.15.15-.15h1.72c.09,0,.15.05.15.15l-2.12,12.5c0,.05-.04.15-.15.15h-1.88,0Z"/>
        <path class="cls-1" d="M174.31,158.66c-.11,0-.15-.09-.15-.15v-12.5c0-.09.05-.15.15-.15h3.4c.07,0,.15.05.15.15v1.55c0,.09-.07.13-.15.13h-1.61v3.54h1.61c.07,0,.15.05.15.15v1.55c0,.11-.07.15-.15.15h-1.61v3.73h1.61c.07,0,.15.05.15.13v1.57c0,.11-.07.15-.15.15h-3.4Z"/>
        <path class="cls-1" d="M189.78,147.63h-1.5c-.08,0-.09.02-.09.09v9.1c0,.08.02.09.09.09h1.5c.08,0,.09-.02.09-.09v-1.7c0-.09.07-.13.15-.13h1.65c.09,0,.15.04.15.13v1.85c0,1.13-.4,1.79-1.83,1.79h-1.85c-1.46,0-1.88-.66-1.88-1.75v-9.43c0-1.13.49-1.79,1.85-1.79h1.86c1.35,0,1.85.66,1.85,1.77v1.7c0,.09-.05.13-.15.13h-1.65c-.07,0-.15-.04-.15-.13v-1.53c0-.07-.02-.09-.09-.09h0Z"/>
        <path class="cls-1" d="M195.1,157v-9.43c0-1.13.49-1.79,1.85-1.79h1.86c1.35,0,1.85.66,1.85,1.77v9.41c0,1.13-.4,1.79-1.83,1.79h-1.85c-1.46,0-1.88-.66-1.88-1.75h0ZM198.63,147.63h-1.5c-.08,0-.09.02-.09.09v9.1c0,.08.02.09.09.09h1.5c.07,0,.09-.02.09-.09v-9.1c0-.07-.02-.09-.09-.09Z"/>
        <path class="cls-1" d="M203.91,158.66c-.11,0-.15-.09-.15-.15v-1.65c0-.09.05-.15.15-.15h1.65c.09,0,.15.05.15.15v1.65c0,.11-.05.15-.15.15h-1.65Z"/>
      </g>
    </g>
  </g>
</svg>
